<svg xmlns:xlink="http://www.w3.org/1999/xlink" aria-hidden="true" class="rkbrtb0 rkbrtb1 rkbrtb3 _1v25wbq6g" fill="currentColor" height="33" viewBox="0 0 48 48" width="33" xmlns="http://www.w3.org/2000/svg"><path d="M16.7779 36.9268C16.8854 36.9746 17.0009 36.9995 17.1176 37C17.3517 37 17.5761 36.9021 17.7416 36.7279C17.907 36.5537 18 36.3175 18 36.0711V11.9203C17.9967 11.6753 17.9015 11.4416 17.7353 11.2701C17.57 11.0971 17.3463 11 17.1132 11C16.8801 11 16.6565 11.0971 16.4912 11.2701L9.76765 18.4225H3.88235C3.64834 18.4225 3.42391 18.5203 3.25844 18.6945C3.09296 18.8687 3 19.105 3 19.3513V28.6401C3 28.8865 3.09296 29.1227 3.25844 29.2969C3.42391 29.4711 3.64834 29.569 3.88235 29.569H9.76765L16.4912 36.7213C16.5729 36.8091 16.6703 36.8789 16.7779 36.9268Z" fill="#FFFFFF"></path><path d="M38.385 16.5L40.5 18.615L35.115 24L40.5 29.385L38.385 31.5L33 26.115L27.615 31.5L25.5 29.385L30.885 24L25.5 18.615L27.615 16.5L33 21.885L38.385 16.5Z" fill="#FFFFFF"></path></svg>