<svg xmlns:xlink="http://www.w3.org/1999/xlink" aria-hidden="true" class="rkbrtb0 rkbrtb1 rkbrtb3 _1v25wbq6g" fill="currentColor" height="33" viewBox="0 0 48 48" width="33" xmlns="http://www.w3.org/2000/svg"><path d="M28.3604 11.4639L30.4806 9.34351C34.3167 13.2534 36.4667 18.511 36.4695 23.9885C36.4723 29.466 34.3274 34.7262 30.4953 38.64L28.3754 36.5201C31.6443 33.1682 33.4727 28.6709 33.4698 23.9889C33.467 19.307 31.6333 14.8118 28.3604 11.4639Z" fill="#FFFFFF"></path><path d="M17.1176 37C17.0009 36.9995 16.8854 36.9746 16.7779 36.9268C16.6703 36.879 16.5729 36.8091 16.4912 36.7214L9.76765 29.569H3.88235C3.64834 29.569 3.42391 29.4712 3.25844 29.297C3.09296 29.1228 3 28.8865 3 28.6401V19.3514C3 19.105 3.09296 18.8688 3.25844 18.6946C3.42391 18.5204 3.64834 18.4225 3.88235 18.4225H9.76765L16.4912 11.2701C16.6565 11.0971 16.8801 11 17.1132 11C17.3463 11 17.57 11.0971 17.7353 11.2701C17.9015 11.4416 17.9967 11.6754 18 11.9204V36.0712C18 36.3175 17.907 36.5538 17.7416 36.728C17.5761 36.9022 17.3517 37 17.1176 37Z" fill="#FFFFFF"></path><path d="M24.1196 15.7051C26.2662 17.9291 27.4669 20.8987 27.4697 23.9896C27.4725 27.0806 26.277 30.0523 24.1343 32.2801L22.0139 30.1599C23.5932 28.4941 24.4723 26.2853 24.4697 23.9899C24.4671 21.6945 23.583 19.4877 22 17.8255L24.1196 15.7051Z" fill="#FFFFFF"></path></svg>