<svg xmlns:xlink="http://www.w3.org/1999/xlink" aria-hidden="true" class="rkbrtb0 rkbrtb1 rkbrtb3 _1v25wbq6g" fill="currentColor" height="33" viewBox="0 0 48 48" width="33" xmlns="http://www.w3.org/2000/svg"><path d="M45.4697 24C45.4697 31.8596 42.3761 39.4034 36.8578 45H36.8548L34.7326 42.8781C39.693 37.8428 42.4722 31.0574 42.4694 23.9892C42.4666 16.921 39.682 10.1379 34.7176 5.10645L36.8241 3H36.8578C42.3761 8.59661 45.4697 16.1404 45.4697 24Z" fill="#FFFFFF"></path><path d="M30.4806 9.34347L28.3604 11.4639C31.6333 14.8118 33.467 19.307 33.4698 23.9889C33.4727 28.6708 31.6443 33.1682 28.3754 36.52L30.4953 38.64C34.3274 34.7262 36.4723 29.4659 36.4695 23.9884C36.4667 18.5109 34.3167 13.2533 30.4806 9.34347Z" fill="#FFFFFF"></path><path d="M16.7779 36.9268C16.8854 36.9746 17.0009 36.9995 17.1176 37C17.3517 37 17.5761 36.9021 17.7416 36.7279C17.907 36.5537 18 36.3175 18 36.0711V11.9203C17.9967 11.6753 17.9015 11.4416 17.7353 11.2701C17.57 11.0971 17.3463 11 17.1132 11C16.8801 11 16.6565 11.0971 16.4912 11.2701L9.76765 18.4225H3.88235C3.64834 18.4225 3.42391 18.5203 3.25844 18.6945C3.09296 18.8687 3 19.105 3 19.3513V28.6401C3 28.8865 3.09296 29.1227 3.25844 29.2969C3.42391 29.4711 3.64834 29.569 3.88235 29.569H9.76765L16.4912 36.7213C16.5729 36.8091 16.6703 36.8789 16.7779 36.9268Z" fill="#FFFFFF"></path><path d="M24.1195 15.7052L22 17.8255C23.583 19.4877 24.4671 21.6944 24.4697 23.9899C24.4723 26.2853 23.5932 28.494 22.0139 30.1598L24.1343 32.2801C26.277 30.0522 27.4725 27.0805 27.4697 23.9895C27.4669 20.8986 26.266 17.9292 24.1195 15.7052Z" fill="#FFFFFF"></path></svg>